<?xml version="1.0" encoding="UTF-8"?>
<svg version="1.1" xmlns="http://www.w3.org/2000/svg" width="500" height="500">
<path d="M0 0 C165 0 330 0 500 0 C500 165 500 330 500 500 C335 500 170 500 0 500 C0 335 0 170 0 0 Z " fill="#FEFEFE" transform="translate(0,0)"/>
<path d="M0 0 C2.38934012 0.01602443 4.77697191 0.00009685 7.16625977 -0.01904297 C21.29152288 -0.0407901 34.51730688 1.78982067 47.71508789 7.07861328 C48.60333252 7.42819092 49.49157715 7.77776855 50.40673828 8.13793945 C81.564092 20.72902152 105.99176796 45.56429808 119.09008789 76.39111328 C125.32732338 91.86796798 127.67126764 107.14272588 127.52758789 123.70361328 C127.52388184 124.47213623 127.52017578 125.24065918 127.51635742 126.0324707 C127.29238844 158.68104048 114.48691658 186.63807524 92.09008789 210.39111328 C91.42750977 211.12974609 90.76493164 211.86837891 90.08227539 212.62939453 C71.94213449 232.04555294 42.5610334 245.7991525 16.06210327 246.7507782 C12.63270044 246.81651234 9.20723392 246.80578306 5.77758789 246.76611328 C5.05741486 246.76146057 4.33724182 246.75680786 3.59524536 246.75201416 C-29.67567602 246.50049567 -57.62762895 235.36500083 -81.90991211 212.39111328 C-82.73362305 211.63185547 -83.55733398 210.87259766 -84.40600586 210.09033203 C-98.49405096 196.66163381 -107.23878673 180.35650263 -113.78491211 162.20361328 C-114.07132568 161.42099121 -114.35773926 160.63836914 -114.65283203 159.83203125 C-118.51458561 148.610298 -119.24345935 137.24145532 -119.1706543 125.45263672 C-119.15992073 123.39276723 -119.17062849 121.33376935 -119.18334961 119.27392578 C-119.19889868 107.02692672 -117.76882051 95.61391241 -113.78491211 84.01611328 C-113.47706787 83.11546143 -113.16922363 82.21480957 -112.85205078 81.28686523 C-101.48101667 49.10950179 -76.50040312 23.95499295 -46.00610352 9.33691406 C-40.47765493 6.84248012 -34.7664656 4.95527347 -28.90991211 3.39111328 C-28.01828369 3.13217285 -27.12665527 2.87323242 -26.20800781 2.60644531 C-17.40673103 0.27004351 -9.03921956 -0.07183486 0 0 Z " fill="#FDFDFD" transform="translate(245.909912109375,126.60888671875)"/>
<path d="M0 0 C3.81203015 3.81203015 4.20998308 6.67280073 4.25 11.875 C4.18619084 13.58417396 4.10933663 15.29313365 4 17 C4.92941406 16.95359375 5.85882813 16.9071875 6.81640625 16.859375 C19.39558348 16.49209975 19.39558348 16.49209975 25 21 C27.3125 23.5 27.3125 23.5 29 26 C29.4125 26.598125 29.825 27.19625 30.25 27.8125 C32.12323544 33.27610337 31.47895806 37.6835773 29 42.75 C25.60035023 48.38370534 20.99879642 50.00040119 15 52 C12.42734182 52.07029121 9.88358569 52.09370832 7.3125 52.0625 C6.2596582 52.05573242 6.2596582 52.05573242 5.18554688 52.04882812 C3.45699462 52.03706927 1.72848635 52.01913454 0 52 C-0.26683594 52.74378906 -0.53367187 53.48757813 -0.80859375 54.25390625 C-4.45322067 62.65447256 -12.46403676 68.71357671 -20.76171875 72.140625 C-29.37965951 74.42765391 -40.60184365 74.3807436 -48.7265625 70.45703125 C-58.09930681 64.45010062 -64.99561233 56.78120513 -68 46 C-68.34755618 42.74199505 -68.42225111 39.49342665 -68.4765625 36.21875 C-68.49270599 35.28703979 -68.50884949 34.35532959 -68.52548218 33.39538574 C-68.55304548 31.43212201 -68.57454239 29.46876482 -68.59033203 27.50537109 C-68.61344731 25.50150391 -68.65447276 23.49776347 -68.71337891 21.49462891 C-68.79873085 18.58932497 -68.83104843 15.68765142 -68.8515625 12.78125 C-68.88657867 11.89046753 -68.92159485 10.99968506 -68.95767212 10.08190918 C-68.93139521 6.30472737 -68.87943106 3.95796243 -66.25827026 1.10273743 C-62.71614843 -1.61061532 -59.23085859 -3.69837775 -54.875 -4.8125 C-54.08867187 -5.02519531 -53.30234375 -5.23789063 -52.4921875 -5.45703125 C-36.18169169 -9.01057187 -14.30749289 -9.66430652 0 0 Z " fill="#0E0E0E" transform="translate(281,238)"/>
<path d="M0 0 C2.38934012 0.01602443 4.77697191 0.00009685 7.16625977 -0.01904297 C21.29152288 -0.0407901 34.51730688 1.78982067 47.71508789 7.07861328 C48.60333252 7.42819092 49.49157715 7.77776855 50.40673828 8.13793945 C81.564092 20.72902152 105.99176796 45.56429808 119.09008789 76.39111328 C125.32732338 91.86796798 127.67126764 107.14272588 127.52758789 123.70361328 C127.52388184 124.47213623 127.52017578 125.24065918 127.51635742 126.0324707 C127.29238844 158.68104048 114.48691658 186.63807524 92.09008789 210.39111328 C91.42750977 211.12974609 90.76493164 211.86837891 90.08227539 212.62939453 C71.94213449 232.04555294 42.5610334 245.7991525 16.06210327 246.7507782 C12.63270044 246.81651234 9.20723392 246.80578306 5.77758789 246.76611328 C5.05741486 246.76146057 4.33724182 246.75680786 3.59524536 246.75201416 C-29.67567602 246.50049567 -57.62762895 235.36500083 -81.90991211 212.39111328 C-82.73362305 211.63185547 -83.55733398 210.87259766 -84.40600586 210.09033203 C-98.49405096 196.66163381 -107.23878673 180.35650263 -113.78491211 162.20361328 C-114.07132568 161.42099121 -114.35773926 160.63836914 -114.65283203 159.83203125 C-118.51458561 148.610298 -119.24345935 137.24145532 -119.1706543 125.45263672 C-119.15992073 123.39276723 -119.17062849 121.33376935 -119.18334961 119.27392578 C-119.19889868 107.02692672 -117.76882051 95.61391241 -113.78491211 84.01611328 C-113.47706787 83.11546143 -113.16922363 82.21480957 -112.85205078 81.28686523 C-101.48101667 49.10950179 -76.50040312 23.95499295 -46.00610352 9.33691406 C-40.47765493 6.84248012 -34.7664656 4.95527347 -28.90991211 3.39111328 C-28.01828369 3.13217285 -27.12665527 2.87323242 -26.20800781 2.60644531 C-17.40673103 0.27004351 -9.03921956 -0.07183486 0 0 Z M-26.90991211 7.39111328 C-28.10358398 7.70822266 -29.29725586 8.02533203 -30.52709961 8.35205078 C-46.65916881 13.16097627 -61.09699462 21.58193755 -73.90991211 32.39111328 C-74.65370117 32.98408203 -75.39749023 33.57705078 -76.16381836 34.18798828 C-81.89972478 38.90243191 -86.37953674 44.53904669 -90.90991211 50.39111328 C-91.59182617 51.24576172 -92.27374023 52.10041016 -92.97631836 52.98095703 C-107.32035614 71.64785552 -115.5130672 95.1070512 -115.30102539 118.59204102 C-115.28500264 120.69174933 -115.30093828 122.78951116 -115.32006836 124.88916016 C-115.34080328 137.68718043 -113.46274007 150.18884363 -109.28491211 162.32861328 C-109.03257812 163.06748779 -108.78024414 163.8063623 -108.52026367 164.56762695 C-103.60138494 178.34311937 -96.24449401 190.21150514 -86.90991211 201.39111328 C-86.3156543 202.13748047 -85.72139648 202.88384766 -85.10913086 203.65283203 C-80.39214458 209.38301345 -74.79130563 213.89944851 -68.90991211 218.39111328 C-67.94311523 219.13490234 -66.97631836 219.87869141 -65.98022461 220.64501953 C-52.75998527 230.31631421 -37.96969843 237.10770358 -21.90991211 240.39111328 C-21.11230469 240.56626465 -20.31469727 240.74141602 -19.49291992 240.921875 C-12.17787196 242.41964235 -5.1131393 242.7044731 2.34008789 242.64111328 C3.53666016 242.63144531 4.73323242 242.62177734 5.96606445 242.61181641 C39.18085471 242.16040583 68.15715064 228.9935433 91.41577148 205.48535156 C114.49721583 181.3078021 123.8431105 150.72721586 123.34399414 117.79736328 C123.10861232 109.75416539 121.97470147 102.19879813 120.09008789 94.39111328 C119.82325195 93.20904297 119.55641602 92.02697266 119.28149414 90.80908203 C114.19463131 70.66510523 102.41515789 53.10451349 88.09008789 38.39111328 C87.48165039 37.69759766 86.87321289 37.00408203 86.24633789 36.28955078 C69.39585723 17.67742896 40.28004819 5.63706296 15.5690918 4.18408203 C11.82356419 4.08790157 8.08680099 4.06217719 4.34008789 4.07861328 C3.35079788 4.0813475 3.35079788 4.0813475 2.34152222 4.08413696 C-7.78354205 4.13120604 -17.14446566 4.65500869 -26.90991211 7.39111328 Z " fill="#0F0F0F" transform="translate(245.909912109375,126.60888671875)"/>
<path d="M0 0 C1.79202867 0.28943418 3.58360035 0.58169779 5.375 0.875 C6.37273437 1.03742188 7.37046875 1.19984375 8.3984375 1.3671875 C10.35611916 1.71116193 12.31239442 2.06982735 14.25219727 2.50341797 C20.61038665 3.90654373 26.68199763 4.38379419 33.1875 4.375 C34.18620117 4.37628906 35.18490234 4.37757813 36.21386719 4.37890625 C43.66546664 4.27331193 50.16291918 3.15816062 57.234375 0.875 C60 0 60 0 63 0 C63.8202011 22.39604671 63.8202011 22.39604671 55.5625 32.3125 C49.3030885 38.98214777 43.82896378 42.44068902 34.62109375 43.32421875 C23.5743233 43.66980272 16.74157854 41.24420466 8.71875 33.71484375 C1.79911033 26.81093053 -0.12987168 20.57676967 -0.20214844 10.94018555 C-0.18079079 7.29123194 -0.10623816 3.64751001 0 0 Z " fill="#FCFCFC" transform="translate(217,264)"/>
<path d="M0 0 C1.8125 0.9375 1.8125 0.9375 3.8125 3.9375 C4.93085223 7.96356804 5.17733252 11.77840927 4.8125 15.9375 C2.8125 19.1875 2.8125 19.1875 0.8125 21.9375 C0.4761636 25.18694949 0.4761636 25.18694949 3.3125 27.6875 C5.49069371 30.19459476 5.81550399 30.95619149 6.375 34.4375 C5.71400504 38.55035751 4.46688225 40.7522413 1.8125 43.9375 C0.3275 44.4325 0.3275 44.4325 -1.1875 44.9375 C-0.5378125 45.75541016 -0.5378125 45.75541016 0.125 46.58984375 C3.64917068 51.36215821 5.66004005 54.83993325 5.20703125 60.85546875 C4.61122542 63.99967179 3.64526998 66.31925717 1.8125 68.9375 C-0.0703125 69.7578125 -0.0703125 69.7578125 -2.1875 69.9375 C-5.76905638 67.92759705 -8.5508576 65.01702408 -10.625 61.5 C-11.79227652 56.18240698 -11.56905713 51.84946158 -9.1875 46.9375 C-9.765 46.73125 -10.3425 46.525 -10.9375 46.3125 C-14.17212874 44.33578244 -15.44638793 42.29535899 -17.1875 38.9375 C-18.08370814 34.43853513 -17.55063876 31.61368941 -15.375 27.5625 C-13.1875 24.9375 -13.1875 24.9375 -10.1875 22.9375 C-10.36539063 21.63425781 -10.36539063 21.63425781 -10.546875 20.3046875 C-11.60430486 10.85126451 -11.60430486 10.85126451 -9.5625 6.375 C-3.26020135 -0.09314861 -3.26020135 -0.09314861 0 0 Z " fill="#0F0F0F" transform="translate(176.1875,218.0625)"/>
<path d="M0 0 C4.85042388 0.41575062 6.84319505 2.41659978 10 6 C13.12500425 10.68750637 12.38694579 15.62995703 11.5 21.0625 C11.335 21.701875 11.17 22.34125 11 23 C11.969375 23.78375 12.93875 24.5675 13.9375 25.375 C16.54357704 27.48204101 17.85922549 28.71687493 18.23828125 32.171875 C18.40447711 37.94499422 18.10679468 41.55097243 14 46 C11.75 46.875 11.75 46.875 10 47 C10.32226562 47.55945313 10.64453125 48.11890625 10.9765625 48.6953125 C12.7520857 52.69362809 12.54852535 56.71337595 12 61 C9.84238615 65.39513933 7.54299505 68.06922711 3 70 C0.8125 70 0.8125 70 -1 69 C-3.70648426 63.52861814 -3.81204587 57.97602691 -3 52 C-1.62445291 49.13387749 -0.16480631 47.38128694 2 45 C1.38125 44.7525 0.7625 44.505 0.125 44.25 C-2.51939985 42.69447068 -3.07669938 41.92378529 -4 39 C-4.48082937 34.03142981 -4.50243234 31.93787371 -2.125 27.5 C-1.073125 26.2625 -1.073125 26.2625 0 25 C0.66 25 1.32 25 2 25 C1.6390625 24.46632812 1.278125 23.93265625 0.90625 23.3828125 C-2.7326024 17.54043281 -4.11534937 12.86636956 -3 6 C-1.5 2.375 -1.5 2.375 0 0 Z " fill="#0C0C0C" transform="translate(324,218)"/>
<path d="M0 0 C2.5 1.5625 2.5 1.5625 4 4 C3.75 7.75 3.75 7.75 3 11 C3.86625 10.896875 4.7325 10.79375 5.625 10.6875 C10.28238905 11.11873973 11.68789149 12.76491727 15 16 C16.43304064 18.86608129 16.30644155 20.81300783 16 24 C13.09375094 30.34090703 7.85143564 32.78125959 2 36 C0.69869141 36.82951172 0.69869141 36.82951172 -0.62890625 37.67578125 C-3 39 -3 39 -6 39 C-5.89171875 38.23171875 -5.7834375 37.4634375 -5.671875 36.671875 C-6.16127954 31.19520513 -8.67312326 27.04312188 -11.25 22.25 C-11.74113281 21.29222656 -12.23226563 20.33445312 -12.73828125 19.34765625 C-15.6429707 13.43456617 -15.6429707 13.43456617 -21 10 C-21 9.01 -21 8.02 -21 7 C-18.82075876 5.81516981 -16.63370585 4.65261867 -14.4375 3.5 C-13.82841797 3.16613281 -13.21933594 2.83226562 -12.59179688 2.48828125 C-8.25674231 0.24047518 -4.98615985 -0.49434388 0 0 Z " fill="#0D0D0D" transform="translate(320,380)"/>
<path d="M0 0 C1.2981665 0.46140381 1.2981665 0.46140381 2.62255859 0.93212891 C19.10141832 7.07238959 34.35565321 18.61750652 43.25 34 C43.4921875 36.859375 43.4921875 36.859375 43.25 39 C42.26 39 41.27 39 40.25 39 C38.3828125 36.8046875 38.3828125 36.8046875 36.375 33.875 C35.66085937 32.864375 34.94671875 31.85375 34.2109375 30.8125 C33.56382812 29.884375 32.91671875 28.95625 32.25 28 C22.79392193 14.86655824 5.84153536 6.16703062 -9.75 3 C-10.62527344 2.81695312 -11.50054687 2.63390625 -12.40234375 2.4453125 C-35.16952183 -0.58322694 -55.54544437 4.07270539 -73.8125 18 C-80.88302113 23.60247113 -86.28541926 29.61414794 -90.609375 37.53125 C-91.17398438 38.25828125 -91.17398438 38.25828125 -91.75 39 C-92.74 39 -93.73 39 -94.75 39 C-95.28824422 34.84783031 -94.21048722 32.6867007 -91.70385742 29.39526367 C-91.046073 28.58085815 -91.046073 28.58085815 -90.375 27.75 C-89.92165283 27.17934814 -89.46830566 26.60869629 -89.0012207 26.02075195 C-78.26998762 12.82436102 -64.81570167 4.37709199 -48.75 -1 C-48.06035156 -1.23460937 -47.37070313 -1.46921875 -46.66015625 -1.7109375 C-31.99112185 -6.30124759 -14.3426125 -5.11729898 0 0 Z " fill="#111111" transform="translate(275.75,173)"/>
<path d="M0 0 C2.9375 2.125 2.9375 2.125 5 5 C5 7.31 5 9.62 5 12 C10.61 12 16.22 12 22 12 C19.46478873 18.33802817 19.46478873 18.33802817 17 21 C16.01 21 15.02 21 14 21 C13.505 20.01 13.505 20.01 13 19 C10.75203227 18.41605669 10.75203227 18.41605669 8.125 18.1875 C7.24070312 18.07792969 6.35640625 17.96835937 5.4453125 17.85546875 C2.95993351 17.78463549 2.95993351 17.78463549 1.1796875 19.30078125 C-0.28514482 21.06595916 -0.28514482 21.06595916 0 24 C3.50591348 26.68099266 6.65840504 27.49516338 11 28 C9.6062718 32.43458973 7.39417765 34.87378374 4 38 C3.773125 37.05125 3.54625 36.1025 3.3125 35.125 C2.37378948 31.8643339 2.37378948 31.8643339 -0.1171875 31.12109375 C-1.06851562 30.75113281 -2.01984375 30.38117188 -3 30 C-6.21899784 27.98612392 -9.29691036 25.75318748 -12.38476562 23.54492188 C-16.2565242 20.86810198 -19.17548937 19.36538025 -24 19 C-20.34560747 8.82502472 -11.64101577 -2.76227493 0 0 Z " fill="#0B0B0B" transform="translate(375,332)"/>
<path d="M0 0 C0.99 0 1.98 0 3 0 C4.5078125 2.08984375 4.5078125 2.08984375 6.125 4.9375 C16.01012342 21.08112923 32.85317822 31.43546201 51 36 C52.83111328 36.52207031 52.83111328 36.52207031 54.69921875 37.0546875 C74.07579242 41.84795893 93.29856435 35.74062689 110 26 C120.82270829 19.28803396 128.66671184 10.29536142 136 0 C136.99 0.495 136.99 0.495 138 1 C136.55906099 11.84598687 126.18048311 20.62252009 118 27 C108.3084807 34.00004912 98.5124424 37.93739513 87 41 C85.35837891 41.54720703 85.35837891 41.54720703 83.68359375 42.10546875 C63.85912313 46.91968272 43.0244771 41.36961428 26 31 C17.52523959 25.49277116 10.3432781 18.88808505 4 11 C3.525625 10.41089844 3.05125 9.82179688 2.5625 9.21484375 C0.26935505 6.10158099 -0.45302435 3.85070697 0 0 Z " fill="#111111" transform="translate(181,294)"/>
<path d="M0 0 C14.19642857 -0.53571429 14.19642857 -0.53571429 17.6875 1.75 C22.78619714 6.71089451 22.78619714 6.71089451 23.3984375 10.40234375 C23.31569116 19.35273973 23.31569116 19.35273973 20 23 C15.34022685 25.8707531 11.47301181 26.38800608 6.125 26.1875 C3.77375 26.125625 1.4225 26.06375 -1 26 C-0.67 17.42 -0.34 8.84 0 0 Z " fill="#F6F6F6" transform="translate(284,259)"/>
<path d="M0 0 C5.95919392 2.47137139 11.63545575 5.50041217 17.36132812 8.46484375 C22.36089779 11.01418003 27.03117434 13.17437818 32.50390625 14.453125 C31.06263839 17.81608335 29.2979797 20.08239602 26.50390625 22.453125 C25.51390625 22.453125 24.52390625 22.453125 23.50390625 22.453125 C23.27703125 21.81375 23.05015625 21.174375 22.81640625 20.515625 C21.66861462 18.24505222 21.66861462 18.24505222 19.1953125 17.6328125 C16.47057496 17.21152899 16.47057496 17.21152899 14.23046875 18.67578125 C12.12388544 20.52002054 10.21765778 22.23481719 8.50390625 24.453125 C8.2956267 27.81536034 8.2956267 27.81536034 9.50390625 30.453125 C10.49390625 30.783125 11.48390625 31.113125 12.50390625 31.453125 C11.94481745 34.69584006 11.09068845 36.38369924 8.50390625 38.453125 C7.84390625 38.453125 7.18390625 38.453125 6.50390625 38.453125 C6.4044873 37.85886719 6.30506836 37.26460938 6.20263672 36.65234375 C4.98714559 29.96519258 3.04890037 23.79548877 0.62890625 17.453125 C0.28988281 16.51339844 -0.04914063 15.57367188 -0.3984375 14.60546875 C-0.73746094 13.70957031 -1.07648438 12.81367188 -1.42578125 11.890625 C-1.72726074 11.08496094 -2.02874023 10.27929688 -2.33935547 9.44921875 C-3.72749866 7.05380745 -4.95154303 6.4361412 -7.49609375 5.453125 C-7.49609375 3.453125 -7.49609375 3.453125 -5.37109375 1.203125 C-2.49609375 -0.546875 -2.49609375 -0.546875 0 0 Z " fill="#101010" transform="translate(340.49609375,362.546875)"/>
<path d="M0 0 C0.99 0.66 1.98 1.32 3 2 C3 2.66 3 3.32 3 4 C-0.3 4 -3.6 4 -7 4 C-7 5.98 -7 7.96 -7 10 C-3.535 11.485 -3.535 11.485 0 13 C-1 15 -1 15 -4 16.0625 C-5.485 16.5265625 -5.485 16.5265625 -7 17 C-8.36607015 18.14913969 -8.36607015 18.14913969 -8.25 21.25 C-7.98639756 25.20403662 -7.38856845 26.90370756 -5 30 C-1.28424249 32.47717167 0.59986738 32.30345742 5 32 C7.81571431 31.24267038 7.81571431 31.24267038 10 30 C11.4783226 27.04335481 11.06032783 24.25770263 11 21 C9.02 21 7.04 21 5 21 C4.67 22.32 4.34 23.64 4 25 C3.34 25 2.68 25 2 25 C1.5625 22.375 1.5625 22.375 2 19 C4.75258205 15.75755166 8.04596359 13.48761861 11.8125 11.5625 C14.99513384 9.28919011 15.22897403 6.71494329 16 3 C14.35 3.33 12.7 3.66 11 4 C11.66 2.68 12.32 1.36 13 0 C15.875 -0.125 15.875 -0.125 19 0 C21 2 21 2 21.375 4.8125 C20.81022625 9.61307685 18.41903989 11.85688453 14.75 14.8125 C14.1725 15.204375 13.595 15.59625 13 16 C13.66 16.515625 14.32 17.03125 15 17.5625 C17 20 17 20 17.5625 23.375 C16.88221628 27.75905063 15.32822166 30.20531005 12 33 C6.28113388 36.43131967 0.58844524 36.90429641 -6 36 C-9.87763885 34.06118057 -13.03706601 31.92586799 -15 28 C-15.54367526 23.10692268 -15.74561602 21.11842403 -13 17 C-12.34 16.34 -11.68 15.68 -11 15 C-11.495 14.195625 -11.495 14.195625 -12 13.375 C-13.28292178 10.32806078 -13.40995912 8.27967299 -13 5 C-9.05293201 0.13194948 -6.15929312 -0.32417332 0 0 Z " fill="#0D0D0D" transform="translate(263,396)"/>
<path d="M0 0 C2.4375 0.6875 2.4375 0.6875 5 2 C6.54299642 6.29602687 5.57004763 9.03528718 3.9453125 13.18359375 C3.49542969 14.35857422 3.04554688 15.53355469 2.58203125 16.74414062 C2.10121094 17.96294922 1.62039062 19.18175781 1.125 20.4375 C0.18521976 22.85096833 -0.74984873 25.26627785 -1.6796875 27.68359375 C-2.09976074 28.75150146 -2.51983398 29.81940918 -2.95263672 30.91967773 C-3.98403906 33.95305847 -4.56815034 36.83062743 -5 40 C-8.43752007 38.4722133 -11.18953688 36.49818944 -14 34 C-14 33.34 -14 32.68 -14 32 C-12.68 32 -11.36 32 -10 32 C-8.87885396 28.8436445 -8.87885396 28.8436445 -9 25 C-10.8370703 21.96509077 -12.96509077 19.8370703 -16 18 C-19.8436445 17.87885396 -19.8436445 17.87885396 -23 19 C-23.33 20.32 -23.66 21.64 -24 23 C-28.71346154 21.51153846 -28.71346154 21.51153846 -30.1640625 18.921875 C-30.43992187 18.28765625 -30.71578125 17.6534375 -31 17 C-30.47140381 16.84072021 -29.94280762 16.68144043 -29.39819336 16.51733398 C-23.16780606 14.55116219 -17.40280235 11.97615714 -11.5625 9.0625 C-10.66595703 8.63259766 -9.76941406 8.20269531 -8.84570312 7.75976562 C-7.99041016 7.33501953 -7.13511719 6.91027344 -6.25390625 6.47265625 C-5.48377197 6.09375244 -4.7136377 5.71484863 -3.92016602 5.32446289 C-1.69948079 3.79271243 -0.98572894 2.47792652 0 0 Z " fill="#0F0F0F" transform="translate(158,361)"/>
<path d="M0 0 C5.70969222 1.20204047 11.3585131 2.57708529 17 4.0625 C17.6710376 4.2368457 18.3420752 4.41119141 19.03344727 4.59082031 C23.88124604 5.88124604 23.88124604 5.88124604 25 7 C25.14115161 9.67058851 25.04247107 12.32432238 25 15 C24.01 15 23.02 15 22 15 C21.5875 14.05125 21.175 13.1025 20.75 12.125 C19.28814834 9.04516611 19.28814834 9.04516611 17.25 7.625 C14.1324378 6.7590105 11.21579473 6.87631559 8 7 C7.67 9.64 7.34 12.28 7 15 C10.3 15.33 13.6 15.66 17 16 C17 18.97 17 21.94 17 25 C16.01 25 15.02 25 14 25 C13.566875 24.195625 13.13375 23.39125 12.6875 22.5625 C11.1940019 19.66843898 11.1940019 19.66843898 7.8125 19.1875 C6.4203125 19.0946875 6.4203125 19.0946875 5 19 C4.46467177 20.55759343 3.94734622 22.12138045 3.4375 23.6875 C3.14746094 24.55761719 2.85742188 25.42773438 2.55859375 26.32421875 C1.94858039 29.24631074 2.22296367 31.14400553 3 34 C6.69180857 35.23060286 10.16111956 35.59715918 14 35 C16.37719693 33.12498069 16.37719693 33.12498069 18 31 C18.66 31 19.32 31 20 31 C19.5020163 34.73487777 19.12508244 36.81237635 17 40 C11.02059941 39.57289996 5.3214192 38.5064855 -0.5 37.125 C-1.21865234 36.96354492 -1.93730469 36.80208984 -2.67773438 36.63574219 C-4.71875 36.1328125 -4.71875 36.1328125 -8 35 C-8.495 33.515 -8.495 33.515 -9 32 C-8.01 31.67 -7.02 31.34 -6 31 C-1.50701917 21.15061853 0.40358098 10.73973829 0 0 Z " fill="#121212" transform="translate(203,389)"/>
<path d="M0 0 C1.42627293 0.64585944 2.84712908 1.30477193 4.25 2 C3.25620939 4.59580279 2.62534784 5.78288008 0.18359375 7.1953125 C-0.64011719 7.50210938 -1.46382813 7.80890625 -2.3125 8.125 C-3.11816406 8.43695313 -3.92382812 8.74890625 -4.75390625 9.0703125 C-12.2002819 11.38092189 -19.14027607 12.36012765 -26.9375 12.3125 C-27.84862549 12.30976074 -28.75975098 12.30702148 -29.69848633 12.30419922 C-48.73775753 12.01224247 -48.73775753 12.01224247 -53.75 7 C-52.821875 7.165 -51.89375 7.33 -50.9375 7.5 C-40.5409281 8.90721276 -32.49484772 8.34055161 -23.9375 1.875 C-22.8546875 0.946875 -22.8546875 0.946875 -21.75 0 C-15.20115193 -4.01242332 -6.81579782 -2.73797006 0 0 Z " fill="#F4F4F4" transform="translate(275.75,243)"/>
<path d="M0 0 C4.96883505 1.47596811 9.28781486 3.59489123 13.8125 6.0625 C14.49248047 6.42666016 15.17246094 6.79082031 15.87304688 7.16601562 C20.8510721 9.8510721 20.8510721 9.8510721 22 11 C21.91062197 12.52519276 21.75462854 14.04681929 21.5625 15.5625 C21.40974609 16.80193359 21.40974609 16.80193359 21.25390625 18.06640625 C21.17011719 18.70449219 21.08632812 19.34257812 21 20 C20.01 19.67 19.02 19.34 18 19 C17.731875 17.906875 17.46375 16.81375 17.1875 15.6875 C16.30186873 11.80674501 16.30186873 11.80674501 13.0625 9.5625 C10.12763042 7.77276483 10.12763042 7.77276483 7 8 C5.13749195 10.21491684 5.13749195 10.21491684 4 13 C4.33 14.32 4.66 15.64 5 17 C7.64 17.66 10.28 18.32 13 19 C12.125 25.75 12.125 25.75 11 28 C10.34 28 9.68 28 9 28 C8.7525 27.236875 8.505 26.47375 8.25 25.6875 C6.8744729 22.73011673 5.84548949 21.55208517 3 20 C-0.43284952 21.14428317 -0.6368219 21.54740897 -2.1875 24.625 C-4.09792915 28.64924999 -4.36706702 31.5951958 -4 36 C-8.12751449 35.39301257 -11.3321148 33.96189209 -15 32 C-15 31.01 -15 30.02 -15 29 C-14.28457031 28.63390625 -13.56914062 28.2678125 -12.83203125 27.890625 C-8.60529502 25.06891419 -6.96677292 21.20049141 -4.6875 16.75 C-4.23310547 15.91597656 -3.77871094 15.08195312 -3.31054688 14.22265625 C-0.69081611 9.20380363 0.57413217 5.66477079 0 0 Z " fill="#0E0E0E" transform="translate(177,376)"/>
<path d="M0 0 C6.17597695 2.86741787 11.21645095 8.77794918 14 15 C13.05689686 18.45804484 10.69377498 20.71437275 8 23 C7.01 23 6.02 23 5 23 C5.165 22.360625 5.33 21.72125 5.5 21.0625 C6.16574917 16.98478635 6.65139732 13.10763489 6 9 C3.86048883 6.17032394 2.36771755 5.23884773 -1.125 4.62890625 C-6.5619113 4.32583518 -9.78406568 5.37233559 -14 9 C-17.43987246 12.34690293 -18.80492377 15.22896603 -19.15234375 19.94140625 C-18.87779399 23.65134791 -17.61072893 26.35427471 -15 29 C-12.34019015 30.42869786 -9.9351801 31.16836564 -7 32 C-7 32.66 -7 33.32 -7 34 C-12.31163918 34.542004 -15.34451379 33.87861056 -19.421875 30.609375 C-23.40612199 26.54623203 -25.20484792 22.03049464 -25.5 16.375 C-25.235241 11.23867536 -23.20751513 8.07799256 -19.46875 4.55859375 C-13.24658392 -0.79429913 -8.03021459 -0.69529907 0 0 Z " fill="#0C0C0C" transform="translate(134,333)"/>
<path d="M0 0 C1.2375 0.45375 2.475 0.9075 3.75 1.375 C19.9259192 6.62595223 39.80894548 7.56907077 56 2 C57.41479159 1.59751618 58.83122486 1.20070816 60.25 0.8125 C61.1575 0.544375 62.065 0.27625 63 0 C63 1.98 63 3.96 63 6 C52.51121395 10.19551442 43.19915124 11.38743207 31.875 11.375 C30.59069092 11.37556396 29.30638184 11.37612793 27.9831543 11.37670898 C18.14432605 11.2626591 8.92795514 10.46397757 0 6 C0 4.02 0 2.04 0 0 Z " fill="#F4F4F4" transform="translate(217,253)"/>
<path d="M0 0 C1.30130859 0.0009668 1.30130859 0.0009668 2.62890625 0.00195312 C7.15093373 0.03292592 11.4263525 0.27589191 15.875 1.1875 C12.875 3.1875 12.875 3.1875 9.25 4.4375 C4.98381838 5.96733222 1.53380673 8.26565875 -2.14453125 10.8828125 C-6.78106789 13.93725676 -11.77753499 13.73871125 -17.125 13.1875 C-21.21932038 12.08573811 -25.16945906 10.70990751 -29.125 9.1875 C-21.35867859 0.98221259 -10.74427309 -0.15302938 0 0 Z " fill="#F2F2F2" transform="translate(246.125,234.8125)"/>
<path d="M0 0 C2.53388528 2.01842682 4.43338495 4.15976278 6 7 C5.875 9.9375 5.875 9.9375 5 12 C4.01 11.67 3.02 11.34 2 11 C1.5875 10.01 1.175 9.02 0.75 8 C-0.11625 6.515 -0.11625 6.515 -1 5 C-4.59385054 4.02126462 -4.59385054 4.02126462 -8 4 C-10.21016064 7.31524095 -10.26630946 8.80875475 -9.6796875 12.671875 C-8.17951057 17.81041207 -5.12273425 22.9115034 -1.3046875 26.66796875 C0 28 0 28 0 30 C0.66 30 1.32 30 2 30 C1.67 31.32 1.34 32.64 1 34 C-6.33103373 30.79167014 -10.84700464 23.57685875 -14.11328125 16.5234375 C-15.49434159 12.59319531 -16.021131 9.07648359 -15 5 C-10.64019411 -0.6559644 -6.8731791 -1.86391298 0 0 Z " fill="#0F0F0F" transform="translate(245,188)"/>
<path d="M0 0 C2.9375 1.625 2.9375 1.625 5 4 C5.625 6.875 5.625 6.875 5 10 C3.50878258 12.26253677 1.88378004 14.02203095 0 16 C-5.08938811 14.40956621 -8.87456643 11.2553049 -13 8 C-9.38093925 1.62355963 -7.82121921 -0.94394025 0 0 Z " fill="#F7F7F7" transform="translate(371,337)"/>
<path d="M0 0 C6.51819877 1.89536276 12.17814801 4.5178994 18 8 C17.67 9.98 17.34 11.96 17 14 C16.34 14 15.68 14 15 14 C14.79375 13.071875 14.5875 12.14375 14.375 11.1875 C13.25763365 7.77797904 13.25763365 7.77797904 10.0625 6.125 C7.07443108 4.82759127 7.07443108 4.82759127 4 5 C2.5393715 7.64738916 2 8.89448334 2 12 C4.64 12.66 7.28 13.32 10 14 C10 15.98 10 17.96 10 20 C9.34 20.33 8.68 20.66 8 21 C7.62875 20.21625 7.2575 19.4325 6.875 18.625 C4.56693694 15.39371171 2.78383679 14.92493788 -1 14 C-1.28875 14.9075 -1.5775 15.815 -1.875 16.75 C-3 20 -3 20 -4.125 22.1875 C-5.21737453 24.11483327 -5.21737453 24.11483327 -5 27 C-0.77431785 29.41467551 2.12619662 30.43322697 7 30 C7.99 29.67 8.98 29.34 10 29 C9.25 30.9375 9.25 30.9375 8 33 C4.62260532 34.31268787 3.93412007 33.97427879 0.328125 32.56640625 C-1.03703211 31.9103356 -2.3963052 31.24190637 -3.75 30.5625 C-4.44738281 30.22412109 -5.14476562 29.88574219 -5.86328125 29.53710938 C-7.58068121 28.70193542 -9.29105738 27.85234576 -11 27 C-11 25 -11 25 -9.62768555 23.61474609 C-9.09054932 23.08187988 -8.55341309 22.54901367 -8 22 C-6.40980634 19.3050136 -5.13616146 16.45902382 -3.8125 13.625 C-3.44447266 12.86960937 -3.07644531 12.11421875 -2.69726562 11.3359375 C-0.86326306 7.44336062 0.53574834 4.40894535 0 0 Z " fill="#1F1F1F" transform="translate(306,87)"/>
<path d="M0 0 C2.375 0.3125 2.375 0.3125 5 1 C5.66 1.99 6.32 2.98 7 4 C5.96875 3.87625 4.9375 3.7525 3.875 3.625 C-1.43850832 4.13921048 -2.60483943 6.02517787 -6 10 C-4.95125002 12.62187494 -4.35068687 13.79371361 -1.875 15.25 C-1.25625 15.4975 -0.6375 15.745 0 16 C2.2477975 13.94766315 3.0022242 12.99332739 4 10 C6.97 10.495 6.97 10.495 10 11 C10 11.66 10 12.32 10 13 C9.05125 13.28875 8.1025 13.5775 7.125 13.875 C3.94788422 14.76825109 3.94788422 14.76825109 2 17 C2.20985218 19.64736593 2.78754291 20.77786261 4.62890625 22.703125 C5.26699219 23.21359375 5.90507812 23.7240625 6.5625 24.25 C7.20316406 24.77078125 7.84382813 25.2915625 8.50390625 25.828125 C8.99761719 26.21484375 9.49132812 26.6015625 10 27 C13.87467873 25.74334744 16.10609704 24.68812681 18 21 C18.25063732 17.33285151 18.25063732 17.33285151 18 14 C18.66 14 19.32 14 20 14 C22 17 22 17 21.89453125 18.8671875 C20.6587876 21.81354571 18.83623754 23.76877389 16.6875 26.125 C15.90761719 26.99382812 15.12773437 27.86265625 14.32421875 28.7578125 C12.2414022 30.76711788 10.65164325 31.91992563 8 33 C7.81179687 32.31292969 7.62359375 31.62585938 7.4296875 30.91796875 C5.42919753 26.83500152 2.47473831 24.32453556 -0.875 21.3125 C-1.50019531 20.73177734 -2.12539062 20.15105469 -2.76953125 19.55273438 C-5.73094754 16.84488544 -8.32767485 14.68578071 -12 13 C-11.55269531 12.56429687 -11.10539063 12.12859375 -10.64453125 11.6796875 C-6.85478464 7.94650427 -3.33540417 4.143987 0 0 Z " fill="#171717" transform="translate(140,120)"/>
<path d="M0 0 C0.66 1.98 1.32 3.96 2 6 C-1.875 4.125 -1.875 4.125 -3 3 C-4.85287502 2.92773498 -6.70833878 2.9161878 -8.5625 2.9375 C-9.57441406 2.94652344 -10.58632812 2.95554687 -11.62890625 2.96484375 C-12.41136719 2.97644531 -13.19382813 2.98804687 -14 3 C-13.67 5.64 -13.34 8.28 -13 11 C-9.4780279 11.08004482 -6.38018531 11.04005702 -3 10 C-2.01 11.485 -2.01 11.485 -1 13 C-1.33 13.99 -1.66 14.98 -2 16 C-2.99 15.34 -3.98 14.68 -5 14 C-6.98 14 -8.96 14 -11 14 C-11 18.62 -11 23.24 -11 28 C-6.71 27.34 -2.42 26.68 2 26 C2.33 24.68 2.66 23.36 3 22 C3.66 22 4.32 22 5 22 C5 23.98 5 25.96 5 28 C2.41842632 28.53132389 -0.16461756 29.05034379 -2.75 29.5625 C-3.47960937 29.71396484 -4.20921875 29.86542969 -4.9609375 30.02148438 C-8.66557073 30.74557178 -11.39322322 31.09817231 -15 30 C-14.80921875 29.36191406 -14.6184375 28.72382812 -14.421875 28.06640625 C-13.84131414 23.84658887 -14.52937567 20.10971282 -15.25 15.9375 C-15.37246094 15.13505859 -15.49492187 14.33261719 -15.62109375 13.50585938 C-16.32788571 9.28960038 -16.92641288 6.18582486 -20 3 C-18.1650111 1.1650111 -15.2895435 1.31535409 -12.8125 0.9375 C-11.12060547 0.67259766 -11.12060547 0.67259766 -9.39453125 0.40234375 C-6.22235119 0.02635463 -3.19013918 -0.07261318 0 0 Z " fill="#1B1B1B" transform="translate(232,78)"/>
<path d="M0 0 C3.05174034 2.5307115 3.82214839 4.14631226 4.625 8 C3.96337868 11.17578234 3.54449461 11.83518387 1.25 13.9375 C-2 16 -2 16 -3.99609375 15.96484375 C-6.96821462 14.53382259 -7.78932552 12.50504703 -9.3125 9.625 C-9.84488281 8.64789063 -10.37726563 7.67078125 -10.92578125 6.6640625 C-12 4 -12 4 -11 1 C-7.52783162 -0.73608419 -3.78819873 -0.59211632 0 0 Z " fill="#FAFAFA" transform="translate(326,396)"/>
<path d="M0 0 C2.75 2.375 2.75 2.375 5 5 C5.99 5.66 6.98 6.32 8 7 C6.125 11.75 6.125 11.75 5 14 C4.34 14 3.68 14 3 14 C2.96261719 13.38511719 2.92523438 12.77023438 2.88671875 12.13671875 C2.78810547 10.92435547 2.78810547 10.92435547 2.6875 9.6875 C2.62949219 8.88699219 2.57148438 8.08648437 2.51171875 7.26171875 C1.9091994 4.5986752 1.19126065 3.60130586 -1 2 C-3.65466049 2.23043864 -3.65466049 2.23043864 -6 3 C-5.85831863 4.43791516 -5.71148957 5.8753237 -5.5625 7.3125 C-5.48128906 8.11300781 -5.40007812 8.91351563 -5.31640625 9.73828125 C-5.04734307 12.16087179 -5.04734307 12.16087179 -4 15 C-3.43416757 22.12948857 -3.43416757 22.12948857 -5.625 25.5 C-8.83067239 27.5246352 -10.26031834 27.73327091 -14 27 C-17.74502774 24.45816202 -20.82115299 21.19805454 -24 18 C-22.70775933 14.01559128 -21.41040443 12.36371527 -18 10 C-18.04640625 10.67546875 -18.0928125 11.3509375 -18.140625 12.046875 C-18.436379 17.63365415 -18.436379 17.63365415 -16.375 22.6875 C-13.21155486 24.43571968 -11.41470013 23.93128185 -8 23 C-7.79056907 17.86894226 -8.57382437 13.90247874 -10 9 C-10.49323017 3.87040619 -10.49323017 3.87040619 -8.9375 1.125 C-5.80077867 -0.69632206 -3.54699627 -0.48924087 0 0 Z " fill="#191919" transform="translate(363,124)"/>
<path d="M0 0 C2.44051189 1.19302914 3.46932013 2.68389152 4.92578125 4.94140625 C4.23871094 4.90660156 3.55164063 4.87179688 2.84375 4.8359375 C1.49216797 4.79533203 1.49216797 4.79533203 0.11328125 4.75390625 C-1.22669922 4.70169922 -1.22669922 4.70169922 -2.59375 4.6484375 C-5.0929206 4.76180509 -5.0929206 4.76180509 -6.9609375 6.140625 C-8.35209599 7.97446975 -8.35209599 7.97446975 -7.76171875 10.62890625 C-7.53484375 11.39203125 -7.30796875 12.15515625 -7.07421875 12.94140625 C-6.51959961 12.91522217 -5.96498047 12.88903809 -5.39355469 12.86206055 C-2.87073306 12.75786622 -0.34836386 12.69301734 2.17578125 12.62890625 C3.04847656 12.58701172 3.92117187 12.54511719 4.8203125 12.50195312 C11.29958765 12.37830284 11.29958765 12.37830284 14.5234375 15.27734375 C15.92578125 17.94140625 15.92578125 17.94140625 16.11328125 20.87890625 C14.07770192 26.1285582 9.99298844 28.97377735 4.98828125 31.31640625 C4.30765625 31.52265625 3.62703125 31.72890625 2.92578125 31.94140625 C1.27578125 29.96140625 -0.37421875 27.98140625 -2.07421875 25.94140625 C-1.39875 26.04839844 -0.72328125 26.15539062 -0.02734375 26.265625 C0.8646875 26.38550781 1.75671875 26.50539063 2.67578125 26.62890625 C3.99835938 26.82033203 3.99835938 26.82033203 5.34765625 27.015625 C8.5337129 26.92390519 9.70725439 26.19067482 11.92578125 23.94140625 C12.34280247 20.85717535 12.34280247 20.85717535 11.92578125 17.94140625 C11.59578125 17.61140625 11.26578125 17.28140625 10.92578125 16.94140625 C7.15496583 16.98301003 3.39387404 17.06955435 -0.37304688 17.24414062 C-6.46637199 17.3775711 -6.46637199 17.3775711 -9.6328125 15.10546875 C-11.07421875 12.94140625 -11.07421875 12.94140625 -11.32421875 10.12890625 C-9.57583927 5.67053857 -5.28404345 -0.14926676 0 0 Z " fill="#202020" transform="translate(166.07421875,101.05859375)"/>
<path d="M0 0 C3.27155869 2.36665948 4.70646942 3.89926032 5.75 7.8125 C4.2416076 14.2231677 -1.64148835 19.4276589 -7 23 C-7.99 23 -8.98 23 -10 23 C-9.66468308 19.94023309 -9.37889212 18.38542474 -7.1875 16.15625 C-5.72916667 15.05208333 -4.27083333 13.94791667 -2.8125 12.84375 C-0.62110788 10.61457526 -0.33531692 9.05976691 0 6 C-2.97 5.505 -2.97 5.505 -6 5 C-6.99 6.485 -6.99 6.485 -8 8 C-9.32 7.67 -10.64 7.34 -12 7 C-9.78039431 0.51192183 -6.79271975 -0.819811 0 0 Z " fill="#0F0F0F" transform="translate(262,200)"/>
<path d="M0 0 C1.875 1.3125 1.875 1.3125 2.625 3.4375 C2.74875 4.365625 2.74875 4.365625 2.875 5.3125 C2.318125 4.9825 1.76125 4.6525 1.1875 4.3125 C-1.42784522 3.1815399 -3.3056646 3.15587026 -6.125 3.3125 C-5.58213729 8.97909428 -4.02464708 13.51816857 -1.6875 18.6875 C-1.37490234 19.41066406 -1.06230469 20.13382813 -0.74023438 20.87890625 C0.76777176 24.78512286 0.76777176 24.78512286 3.875 27.3125 C3.875 27.9725 3.875 28.6325 3.875 29.3125 C1.895 29.6425 -0.085 29.9725 -2.125 30.3125 C-2.33125 29.11625 -2.5375 27.92 -2.75 26.6875 C-4.00905144 20.88290255 -6.45394813 15.64040689 -8.8828125 10.25390625 C-10.125 7.3125 -10.125 7.3125 -10.125 5.3125 C-12.61504504 5.87326801 -12.61504504 5.87326801 -15.125 7.3125 C-16.49689827 10.34232306 -16.49689827 10.34232306 -17.125 13.3125 C-19.125 11.3125 -19.125 11.3125 -19.1484375 8.890625 C-18.125 6.3125 -18.125 6.3125 -15.2890625 4.546875 C-14.12117187 4.05703125 -12.95328125 3.5671875 -11.75 3.0625 C-10.58726562 2.56234375 -9.42453125 2.0621875 -8.2265625 1.546875 C-2.3938161 -0.77446991 -2.3938161 -0.77446991 0 0 Z " fill="#1C1C1C" transform="translate(199.125,85.6875)"/>
<path d="M0 0 C1.98 0 3.96 0 6 0 C6.33 0.66 6.66 1.32 7 2 C6.34 2 5.68 2 5 2 C4.67 10.58 4.34 19.16 4 28 C14.40249456 28.23768984 14.40249456 28.23768984 18 24 C18.042721 25.66611905 18.04063832 27.33382885 18 29 C17 30 17 30 15.23413086 30.11352539 C14.48526611 30.10828857 13.73640137 30.10305176 12.96484375 30.09765625 C12.15595703 30.09443359 11.34707031 30.09121094 10.51367188 30.08789062 C9.66353516 30.07951172 8.81339844 30.07113281 7.9375 30.0625 C7.08349609 30.05798828 6.22949219 30.05347656 5.34960938 30.04882812 C3.23304337 30.03700373 1.11651315 30.01906769 -1 30 C-0.505 28.515 -0.505 28.515 0 27 C0.08315752 24.93501108 0.10735878 22.8674211 0.09765625 20.80078125 C0.09443359 19.59228516 0.09121094 18.38378906 0.08789062 17.13867188 C0.07951172 15.87603516 0.07113281 14.61339844 0.0625 13.3125 C0.05798828 12.03826172 0.05347656 10.76402344 0.04882812 9.45117188 C0.03702873 6.30073436 0.02056597 3.15039051 0 0 Z " fill="#2F2F2F" transform="translate(246,76)"/>
<path d="M0 0 C2.97 0.495 2.97 0.495 6 1 C5.32517578 2.14855469 5.32517578 2.14855469 4.63671875 3.3203125 C2.34305004 7.90764992 1.68508594 12.86357257 0.8125 17.875 C0.63525391 18.84953125 0.45800781 19.8240625 0.27539062 20.828125 C-0.15793612 23.21727789 -0.58009361 25.60845192 -1 28 C2.63 28 6.26 28 10 28 C10.33 27.34 10.66 26.68 11 26 C11.66 26 12.32 26 13 26 C12.67 27.65 12.34 29.3 12 31 C5.1781317 31.38614349 -0.49577707 30.00865708 -7 28 C-6.67 27.34 -6.34 26.68 -6 26 C-5.34 26 -4.68 26 -4 26 C-3.896875 25.113125 -3.79375 24.22625 -3.6875 23.3125 C-3.02282376 18.52292123 -1.79668106 13.86906852 -0.62109375 9.18359375 C-0.00679109 6.03480967 0.11062983 3.19864517 0 0 Z " fill="#252525" transform="translate(277,79)"/>
<path d="M0 0 C0.66 0.66 1.32 1.32 2 2 C1.83652072 5.18784595 1.44027683 6.57439906 -0.875 8.8125 C-3 10 -3 10 -6 10 C-9.05108798 4.63008515 -9.05108798 4.63008515 -8.8125 1.6875 C-6.92730842 -2.22789789 -3.58416757 -0.82137173 0 0 Z " fill="#EFEFEF" transform="translate(317,385)"/>
<path d="M0 0 C4.49797113 1.68673918 8.72886302 3.81673892 13 6 C12.40137646 9.20162702 12.08735442 9.91936515 9.5625 12.25 C7 14 7 14 5 14 C4.16235732 12.04350603 3.33000941 10.08474444 2.5 8.125 C2.0359375 7.03445313 1.571875 5.94390625 1.09375 4.8203125 C0 2 0 2 0 0 Z " fill="#F3F3F3" transform="translate(341,370)"/>
<path d="M0 0 C1.25955231 3.77865693 0.48087189 5.03411786 -0.9375 8.6875 C-1.31777344 9.68136719 -1.69804687 10.67523438 -2.08984375 11.69921875 C-2.39019531 12.45847656 -2.69054687 13.21773438 -3 14 C-6.32759923 12.44805246 -8.48580485 10.69378051 -11 8 C-10 5 -10 5 -7.71484375 3.61328125 C-6.79832031 3.18402344 -5.88179687 2.75476563 -4.9375 2.3125 C-4.01839844 1.87550781 -3.09929687 1.43851562 -2.15234375 0.98828125 C-1.08693359 0.49908203 -1.08693359 0.49908203 0 0 Z " fill="#F6F6F6" transform="translate(155,369)"/>
<path d="M0 0 C3.16115776 1.36983503 3.9927092 1.9890638 6 5 C6.046875 7.2265625 6.046875 7.2265625 5.75 9.625 C5.61851562 10.81996094 5.61851562 10.81996094 5.484375 12.0390625 C5.32453125 12.68617188 5.1646875 13.33328125 5 14 C4.01 14.495 4.01 14.495 3 15 C-1.92099488 10.23774689 -1.92099488 10.23774689 -2.1875 6.0625 C-2 3 -2 3 0 0 Z " fill="#ECECEC" transform="translate(171,268)"/>
<path d="M0 0 C1.60111899 3.20223797 1.49827144 6.52538714 1 10 C-0.875 13 -0.875 13 -3 15 C-3.66 15 -4.32 15 -5 15 C-6.71978973 11.56042054 -6.38154931 7.76863616 -6 4 C-4.2375464 0.55901916 -3.93090471 0 0 0 Z " fill="#F1F1F1" transform="translate(331,268)"/>
<path d="M0 0 C1.875 0.3125 1.875 0.3125 4 1 C6.46751239 4.70126859 6.30721156 6.62223532 6 11 C5 13.4375 5 13.4375 4 15 C0.125 11.25 0.125 11.25 -1 9 C-0.91348369 7.45386986 -0.75997364 5.91090613 -0.5625 4.375 C-0.46066406 3.55773437 -0.35882813 2.74046875 -0.25390625 1.8984375 C-0.17011719 1.27195313 -0.08632813 0.64546875 0 0 Z " fill="#F4F4F4" transform="translate(326,224)"/>
<path d="M0 0 C0.28580155 4.03932853 0.45551292 7.97005043 0 12 C-2.5 14.75 -2.5 14.75 -5 16 C-6.84457074 12.31085851 -6.4871454 8.02706861 -6 4 C-3.14285714 0 -3.14285714 0 0 0 Z " fill="#F3F3F3" transform="translate(176,223)"/>
<path d="M0 0 C1.0725 0.268125 2.145 0.53625 3.25 0.8125 C2.86328125 1.25980469 2.4765625 1.70710937 2.078125 2.16796875 C-0.93390075 5.6646026 -3.89321031 9.18657463 -6.75 12.8125 C-8.17662219 9.95925563 -8.06033868 7.97795451 -7.75 4.8125 C-5.52461176 0.62877011 -4.83842691 -0.24192135 0 0 Z " fill="#E8E8E8" transform="translate(170.75,245.1875)"/>
<path d="M0 0 C3.375 0.3125 3.375 0.3125 7 1 C9.67927341 5.01891012 9.15601248 7.24161923 9 12 C8.34 12 7.68 12 7 12 C5.56418526 10.38542921 4.19855217 8.70780925 2.875 7 C2.15054687 6.071875 1.42609375 5.14375 0.6796875 4.1875 C0.12539063 3.465625 -0.42890625 2.74375 -1 2 C-0.67 1.34 -0.34 0.68 0 0 Z " fill="#ECECEC" transform="translate(329,245)"/>
<path d="M0 0 C0.66 0.33 1.32 0.66 2 1 C1.68279301 4.48927692 1.33692769 6.55850854 -0.8125 9.375 C-3 11 -3 11 -7 11 C-6.68232368 5.59950264 -3.80003673 3.47662935 0 0 Z " fill="#E9E9E9" transform="translate(176,250)"/>
<path d="M0 0 C0.33 0 0.66 0 1 0 C1 1.65 1 3.3 1 5 C2.77174819 4.91276622 4.54247377 4.80458345 6.3125 4.6875 C7.79169922 4.60048828 7.79169922 4.60048828 9.30078125 4.51171875 C12.24384457 3.95377187 13.18182999 3.31459868 15 1 C15.042721 2.66611905 15.04063832 4.33382885 15 6 C14 7 14 7 12.23413086 7.11352539 C11.48526611 7.10828857 10.73640137 7.10305176 9.96484375 7.09765625 C9.15595703 7.09443359 8.34707031 7.09121094 7.51367188 7.08789062 C6.66353516 7.07951172 5.81339844 7.07113281 4.9375 7.0625 C4.08349609 7.05798828 3.22949219 7.05347656 2.34960938 7.04882812 C0.23304337 7.03700373 -1.88348685 7.01906769 -4 7 C-3.67 6.01 -3.34 5.02 -3 4 C-2.34 3.67 -1.68 3.34 -1 3 C-0.67 2.01 -0.34 1.02 0 0 Z " fill="#363636" transform="translate(249,99)"/>
<path d="M0 0 C1 3 1 3 1 6 C3.64 6.66 6.28 7.32 9 8 C9 9.98 9 11.96 9 14 C8.01 14.495 8.01 14.495 7 15 C6.67 14.21625 6.34 13.4325 6 12.625 C3.1172783 8.84142777 0.60565207 8.83052742 -4 8 C-3.50168276 4.31245243 -2.89932357 2.39509338 0 0 Z " fill="#1B1B1B" transform="translate(307,93)"/>
<path d="M0 0 C2 0 2 0 3.7265625 1.64453125 C4.35304688 2.35996094 4.97953125 3.07539063 5.625 3.8125 C6.25664062 4.52019531 6.88828125 5.22789062 7.5390625 5.95703125 C9 8 9 8 9 11 C3.57534247 10.51780822 3.57534247 10.51780822 1.125 8.3125 C-0.28983481 5.40422845 -0.21776233 3.19384754 0 0 Z " fill="#EFEFEF" transform="translate(324,250)"/>
<path d="M0 0 C0.33 0.66 0.66 1.32 1 2 C1.66 2 2.32 2 3 2 C3 3.32 3 4.64 3 6 C6.63 6 10.26 6 14 6 C14.33 5.34 14.66 4.68 15 4 C15.66 4 16.32 4 17 4 C16.67 5.65 16.34 7.3 16 9 C9.1781317 9.38614349 3.50422293 8.00865708 -3 6 C-2.67 5.34 -2.34 4.68 -2 4 C-1.34 4 -0.68 4 0 4 C0 2.68 0 1.36 0 0 Z " fill="#282828" transform="translate(273,101)"/>
<path d="M0 0 C0 2.97 0 5.94 0 9 C-0.99 9 -1.98 9 -3 9 C-7 3.74285714 -7 3.74285714 -7 1 C-4.50935112 0.31292445 -2.62113708 0 0 0 Z " fill="#1C1C1C" transform="translate(220,405)"/>
<path d="M0 0 C-0.5625 1.9375 -0.5625 1.9375 -2 4 C-5.625 4.75 -5.625 4.75 -9 5 C-9.33 4.01 -9.66 3.02 -10 2 C-6.27511755 -0.66063032 -4.42132508 -1.38955931 0 0 Z " fill="#171717" transform="translate(222,384)"/>
<path d="M0 0 C3.53372712 1.96318174 6.24479785 4.04070881 9 7 C7.125 11.75 7.125 11.75 6 14 C5.34 14 4.68 14 4 14 C3.96261719 13.38511719 3.92523438 12.77023438 3.88671875 12.13671875 C3.82097656 11.32847656 3.75523437 10.52023438 3.6875 9.6875 C3.62949219 8.88699219 3.57148438 8.08648437 3.51171875 7.26171875 C2.9123443 4.61257517 1.96373189 3.79526159 0 2 C0 1.34 0 0.68 0 0 Z " fill="#2B2B2B" transform="translate(362,124)"/>
<path d="M0 0 C0.66 0 1.32 0 2 0 C4 3 4 3 3.84765625 4.921875 C2.78664015 7.52307576 1.33252687 9.18269796 -0.5625 11.25 C-1.20316406 11.95640625 -1.84382812 12.6628125 -2.50390625 13.390625 C-2.99761719 13.92171875 -3.49132812 14.4528125 -4 15 C-4.66 14.34 -5.32 13.68 -6 13 C-4 11 -2 9 0 7 C0.04092937 4.66702567 0.04241723 2.33294775 0 0 Z " fill="#303030" transform="translate(158,134)"/>
<path d="M0 0 C0.66 1.98 1.32 3.96 2 6 C-1.875 4.125 -1.875 4.125 -3 3 C-5.67058851 2.85884839 -8.32432238 2.95752893 -11 3 C-11.33 2.34 -11.66 1.68 -12 1 C-7.93631321 0.22596442 -4.13574827 -0.0984702 0 0 Z " fill="#2B2B2B" transform="translate(232,78)"/>
<path d="M0 0 C0.66 0 1.32 0 2 0 C2 1.98 2 3.96 2 6 C0.25360243 6.39143394 -1.49735918 6.76254287 -3.25 7.125 C-4.22453125 7.33382812 -5.1990625 7.54265625 -6.203125 7.7578125 C-9 8 -9 8 -13 6 C-9.04 5.34 -5.08 4.68 -1 4 C-0.67 2.68 -0.34 1.36 0 0 Z " fill="#363636" transform="translate(235,100)"/>
<path d="M0 0 C1.95497263 1.72939887 2.28470355 2.88527664 2.625 5.4375 C1.7896875 4.9425 1.7896875 4.9425 0.9375 4.4375 C-1.74650184 3.27685055 -3.48039438 3.05663084 -6.375 3.4375 C-7.035 4.4275 -7.695 5.4175 -8.375 6.4375 C-8.705 5.1175 -9.035 3.7975 -9.375 2.4375 C-3.05357143 -0.72321429 -3.05357143 -0.72321429 0 0 Z " fill="#2B2B2B" transform="translate(199.375,85.5625)"/>
<path d="M0 0 C0.53625 0.350625 1.0725 0.70125 1.625 1.0625 C5.62019269 2.63954975 9.05410025 1.31529992 13 0 C13 0.99 13 1.98 13 3 C9.51131349 5.32579101 8.10281481 5.41865457 4 5 C1.625 3.625 1.625 3.625 0 2 C0 1.34 0 0.68 0 0 Z " fill="#232323" transform="translate(345,146)"/>
<path d="M0 0 C1.051875 0.495 1.051875 0.495 2.125 1 C6.39191269 2.48414354 9.73173805 2.42275398 14 1 C13.25 2.9375 13.25 2.9375 12 5 C9.52941488 6.02231108 8.39417069 6.14313863 5.859375 5.22265625 C5.16328125 4.83980469 4.4671875 4.45695312 3.75 4.0625 C3.04359375 3.68222656 2.3371875 3.30195312 1.609375 2.91015625 C1.07828125 2.60980469 0.5471875 2.30945313 0 2 C0 1.34 0 0.68 0 0 Z " fill="#262626" transform="translate(302,115)"/>
<path d="M0 0 C3.63 0.66 7.26 1.32 11 2 C9.68 3.32 8.36 4.64 7 6 C3.28139821 4.46126823 2.64366459 3.52488612 0 0 Z " fill="#080808" transform="translate(164,127)"/>
<path d="M0 0 C2.4375 0.875 2.4375 0.875 4.4375 3.875 C3.365 3.813125 2.2925 3.75125 1.1875 3.6875 C-2.67116187 3.88043309 -3.85067788 4.27165076 -6.5625 6.875 C-6.16250283 4.55501641 -5.65682121 3.01176576 -4.3125 1.0625 C-2.5625 -0.125 -2.5625 -0.125 0 0 Z " fill="#2C2C2C" transform="translate(142.5625,120.125)"/>
<path d="M0 0 C5.75 1.75 5.75 1.75 8 4 C7.38125 4.12375 6.7625 4.2475 6.125 4.375 C3.80879168 4.87197356 3.80879168 4.87197356 2 7 C1.34 7 0.68 7 0 7 C0 4.69 0 2.38 0 0 Z " fill="#1A1A1A" transform="translate(306,87)"/>
<path d="M0 0 C2.00720923 0.28674418 4.0085944 0.61866701 6 1 C6 2.98 6 4.96 6 7 C5.01 7.495 5.01 7.495 4 8 C3.54625 7.21625 3.0925 6.4325 2.625 5.625 C1.11571258 2.96301969 1.11571258 2.96301969 -1 1 C-0.67 0.67 -0.34 0.34 0 0 Z " fill="#363636" transform="translate(310,100)"/>
<path d="M0 0 C0.66 0.33 1.32 0.66 2 1 C2.12375 1.639375 2.2475 2.27875 2.375 2.9375 C2.684375 3.9584375 2.684375 3.9584375 3 5 C4.32 5.66 5.64 6.32 7 7 C2.545 7.495 2.545 7.495 -2 8 C-1.34 5.36 -0.68 2.72 0 0 Z " fill="#090909" transform="translate(219,101)"/>
<path d="M0 0 C2.97 0.495 2.97 0.495 6 1 C6 1.66 6 2.32 6 3 C4.6078125 3.433125 4.6078125 3.433125 3.1875 3.875 C-0.09791667 4.8875 -0.09791667 4.8875 -3 7 C-2.690625 6.401875 -2.38125 5.80375 -2.0625 5.1875 C-0.89790296 2.91043228 -0.89790296 2.91043228 0 0 Z " fill="#1F1F1F" transform="translate(144,130)"/>
<path d="M0 0 C0.33 0.66 0.66 1.32 1 2 C0.01 2.495 0.01 2.495 -1 3 C-1.72693904 4.97888961 -2.39816251 6.97954558 -3 9 C-3.66 8.34 -4.32 7.68 -5 7 C-4.875 4.5 -4.875 4.5 -4 2 C-1.9375 0.6875 -1.9375 0.6875 0 0 Z " fill="#202020" transform="translate(185,90)"/>
<path d="M0 0 C0.99 0 1.98 0 3 0 C3.33 2.31 3.66 4.62 4 7 C3.34 7 2.68 7 2 7 C0 4 0 4 0 0 Z " fill="#222222" transform="translate(340,108)"/>
<path d="M0 0 C2.97 0.495 2.97 0.495 6 1 C4.625 3.5 4.625 3.5 3 6 C2.34 6 1.68 6 1 6 C0.67 4.02 0.34 2.04 0 0 Z " fill="#0A0A0A" transform="translate(277,79)"/>
<path d="M0 0 C1.875 0.3125 1.875 0.3125 4 1 C4.66 1.99 5.32 2.98 6 4 C3.69 3.67 1.38 3.34 -1 3 C-0.67 2.01 -0.34 1.02 0 0 Z " fill="#111111" transform="translate(165,102)"/>
<path d="M0 0 C0.33 0 0.66 0 1 0 C1.125 5.75 1.125 5.75 0 8 C-0.66 8 -1.32 8 -2 8 C-1.125 1.125 -1.125 1.125 0 0 Z " fill="#151515" transform="translate(276,95)"/>
<path d="M0 0 C0.99 0.33 1.98 0.66 3 1 C3.33 2.65 3.66 4.3 4 6 C2.02 4.68 0.04 3.36 -2 2 C-1.34 1.34 -0.68 0.68 0 0 Z " fill="#232323" transform="translate(227,88)"/>
<path d="M0 0 C1.32 0 2.64 0 4 0 C4.33 1.98 4.66 3.96 5 6 C4.34 6 3.68 6 3 6 C2.896875 5.360625 2.79375 4.72125 2.6875 4.0625 C2.460625 3.381875 2.23375 2.70125 2 2 C1.01 1.67 0.02 1.34 -1 1 C-0.67 0.67 -0.34 0.34 0 0 Z " fill="#0E0E0E" transform="translate(187,89)"/>
</svg>
